<svg version="1.1" id="Layer_1" xmlns="http://www.w3.org/2000/svg" x="0" y="0" viewBox="0 0 61.8 40" xml:space="preserve"><style>.st1{fill:#fff}</style><path d="M59.4 0h-57C1 0 0 1 0 2.4v35.2C0 39 1 40 2.4 40h57c1.4 0 2.4-1 2.4-2.4V2.4C61.8 1 60.6 0 59.4 0z" fill="#128777"/><path class="st1" d="M31.3 14.4c.2-.1.3-.3.3-.6 0-.2-.1-.4-.3-.5-.2-.1-.4-.1-.6-.1h-1.8v1.3h1.7c.3.1.4.1.7-.1zM42.5 13l-1 2.4h1.9zM56.3 24.2c.2-.2.4-.5.4-.9V22c0-.6-.4-1-1-1H53c-.9 0-1.5.2-2 .6-.2-.4-.5-.6-.9-.6h-2.8c-.8 0-1.4.2-1.8.5-.2-.3-.5-.5-.8-.5H40c-.4 0-.7.2-.9.6-.1 0-.1 0-.1-.1-.6-.4-1.4-.4-2.2-.4h-3.2c-.4 0-.7.2-.9.6-.5-.3-1.2-.6-2.2-.6H26c-.2 0-.6.1-.7.3l-1 1.1-1.1-1.1c-.2-.2-.5-.3-.7-.3h-5.6c-.6 0-1 .4-1 1V28c0 .6.4 1 1 1h5.5c.2 0 .6-.1.7-.3l1-1.1 1 1.1c.2.2.5.3.7.3h2.7c.6 0 1-.4 1-1v-1h.8c1 0 1.6-.2 2.2-.5V28c0 .6.4 1 1 1H35c.6 0 1-.4 1-1v-1.2H36.9V28c0 .6.4 1 1 1h1.4c.2 0 .3-.1.4-.1.1.1.1.1.3.1h4.6c.2 0 .3-.1.4-.1.2.1.2.1.4.1h2.7c.9 0 1.6-.2 2.1-.6.2.3.5.6.9.6h2.7c2 0 3.2-1 3.2-2.8 0-.9-.2-1.5-.7-2zM30.4 26h-1.8v2h-2.7l-1.8-1.9-1.7 1.9h-5.6v-5.8h5.6l1.8 1.9 1.8-1.9h4.5c1.1 0 2.4.3 2.4 1.9-.1 1.6-1.3 1.9-2.5 1.9zm8.4-.2c.2.3.2.6.2 1V28h-1.4v-.7c0-.3 0-.9-.2-1.1-.2-.2-.5-.2-1-.2h-1.5v2h-1.4v-5.8h3.2c.7 0 1.2 0 1.7.2s.7.6.7 1.3c0 1-.6 1.4-1 1.6.3.1.6.3.7.5zm5.8-2.4h-3.3v1h3.2v1.2h-3.2v1.2h3.3V28H40v-5.8h4.6v1.2zm3.6 4.6h-2.7v-1.3h2.7c.2 0 .5 0 .6-.2.1-.1.2-.2.2-.4s-.1-.3-.2-.4c-.1-.1-.2-.2-.5-.2-1.3-.1-3 .1-3-1.8 0-.9.6-1.8 2-1.8h2.8v1.3h-2.6c-.2 0-.4 0-.6.1-.2.1-.2.2-.2.4s.2.4.3.4c.2.1.3.1.6.1h.7c.8 0 1.3.2 1.6.5.2.3.4.6.4 1.3 0 1.4-.8 2-2.1 2zm5.6 0h-2.7v-1.3h2.7c.2 0 .5 0 .6-.2.1-.1.2-.2.2-.4s-.1-.3-.2-.4c-.1-.1-.2-.2-.5-.2-1.3-.1-3 .1-3-1.8 0-.9.6-1.8 2-1.8h2.8v1.3h-2.6c-.2 0-.4 0-.6.1-.2.1-.2.2-.2.4s.2.4.3.4c.2.1.3.1.6.1h.8c.8 0 1.3.2 1.6.5.2.3.4.7.4 1.3.1 1.4-.7 2-2.2 2z"/><path class="st1" d="M30.5 23.4h-1.8v1.4h1.8c.6 0 .9-.2.9-.8-.1-.5-.4-.6-.9-.6zM37.3 23.4c-.2-.1-.4-.1-.6-.1h-1.8v1.3h1.7c.2 0 .5 0 .7-.2.2-.1.3-.3.3-.6s-.2-.3-.3-.4zM8.2 15.4h2l-1-2.4zM27.2 27.4v-4.7L25 25zM18.2 23.4v1h3.1v1.2h-3.1v1.1h3.5l1.6-1.7-1.5-1.6z"/><path class="st1" d="M17.3 18.9c.4 0 .7-.2.9-.6l.2-.4c0 .6.4 1 1 1h1.5c.2 0 .4-.1.6-.2.2.1.3.2.6.2h4.7c.2 0 .3-.1.5-.2.2.1.3.2.5.2H29c.6 0 1-.4 1-1v-1.2H30.6v1.2c0 .6.4 1 1 1H33c.2 0 .3-.1.4-.1.2.1.2.1.4.1h1.4c.5 0 .9-.3 1-.8.8.6 1.9.8 2.6.8h1.7c.4 0 .7-.2.9-.6l.3-.7h1.6l.3.7c.2.4.5.6.9.6h2.9c.6 0 1-.4 1-1v-1l.9 1.4c.2.3.5.5.8.5h2c.6 0 1-.4 1-1V12c0-.6-.4-1-1-1h-1.4c-.6 0-1 .4-1 1v.6l-.7-1.1c-.2-.3-.5-.5-.8-.5H46c-.6 0-1 .4-1 1v.8l-.5-1.2c-.2-.3-.5-.6-.9-.6h-2.1c-.2 0-.4.1-.6.2 0-.2-.3-.2-.4-.2h-1.4c-1.1 0-2 .2-2.6.8-.1-.5-.5-.8-1-.8h-1.4c-.4 0-.7.2-.9.6l-.2-.2c-.6-.4-1.3-.4-2.1-.4h-3.2c-.2 0-.3.1-.5.2-.2-.1-.3-.2-.5-.2H22c-.2 0-.4.1-.6.2-.2-.1-.3-.2-.6-.2h-2.3c-.4 0-.7.2-.9.6l-.8 2-.9-2c-.2-.3-.5-.6-.9-.6h-2.3c-.6 0-1 .4-1 1v.9l-.6-1.2c-.2-.3-.5-.6-.9-.6H8.3c-.4 0-.7.2-.9.6l-2.6 5.8c-.2.3-.1.6.1.9s.5.4.8.4h1.5c.4 0 .7-.2.9-.6l.3-.7H10l.3.7c.2.4.5.6.9.6h2.9c.6 0 1-.4 1-1l.2.4c.2.3.5.6.9.6l1.1.1zm19.5-6.2c.5-.5 1.2-.7 2.2-.7h1.4v1.3H39c-.5 0-.8.1-1 .3-.2.2-.4.7-.4 1.4 0 .6.2 1.1.4 1.4.2.2.6.3 1 .3h.6l2-4.6h2.1l2.4 5.5V12h2.2l2.5 4.1V12h1.4v5.8h-2l-2.6-4.4v4.4h-2.9l-.7-1.2h-2.9l-.6 1.3h-1.7c-.7 0-1.5-.2-2-.6-.5-.5-.7-1.2-.7-2.2-.1-.9.1-1.7.7-2.4zm2.6 1.5l-.6 1.4h-.2c-.1-.1-.1-.3-.1-.7s.1-.6.1-.6c.1 0 .1-.1.4-.1h.4zM33.9 12h1.4v5.8h-1.4V12zm-6.5 0h3.2c.7 0 1.3 0 1.7.3.5.2.7.6.7 1.3 0 1-.6 1.4-1 1.6.3.1.6.3.7.5.2.3.2.6.2 1v1.1h-1.4v-.7c0-.3 0-.9-.2-1.1s-.5-.2-1-.2h-1.5V18h-1.4v-6zm-5.6 0h4.7v1.2h-3.4v1h3.2v1.2h-3.2v1.2h3.3v1.2h-4.7l.1-5.8zM14 13.3v4.6h-2.8l-.6-1.3H7.8L7.2 18H5.7l2.5-5.8h2.1l2.4 5.5V12H15l1.8 4 1.7-4h2.3v5.8h-1.4v-4.6l-2 4.6h-1.2L14 13.3z"/></svg>