<svg version="1.1" id="Layer_1" xmlns="http://www.w3.org/2000/svg" x="0" y="0" viewBox="0 0 61.8 40" xml:space="preserve"><style>.st1{fill:#fff}</style><path d="M59.4 0h-57C1 0 0 1 0 2.4v35.2C0 39 1 40 2.4 40h57c1.4 0 2.4-1 2.4-2.4V2.4C61.8 1 60.6 0 59.4 0z" fill="#128777"/><g id="g3051" transform="translate(.32 -.01)"><g id="layer1"><path id="path2997" class="st1" d="M20.8 19.2c0 2.2 2 3 2 3 0 .1-.3 1-1 2.1-.6.9-1.3 1.8-2.3 1.8s-1.4-.6-2.5-.6-1.5.6-2.5.6-1.8-1-2.4-1.8c-1.3-1.8-2.2-5.1-1-7.4.6-1.1 1.8-1.8 3.1-1.8 1 0 1.9.6 2.5.6s1.7-.8 2.9-.6c.5 0 1.8.2 2.7 1.4 0 0-1.6.9-1.5 2.7m-1.9-5.4c.6-.6.9-1.4.8-2.3-.7 0-1.7.5-2.2 1.1-.5.6-.9 1.4-.8 2.2.8.1 1.6-.4 2.2-1"/></g><g id="text3006" transform="scale(1.0118 .98834)"><path id="path2995" class="st1" d="M26.2 12.9c.4-.1.8-.2 1.3-.2.5-.1 1-.1 1.5-.1.8 0 1.5.1 2.1.3.6.2 1 .5 1.4.8.3.3.6.7.7 1.1.2.4.2 1 .2 1.5 0 .7-.2 1.3-.4 1.8s-.6 1-1 1.3c-.4.3-1 .6-1.5.8-.6.2-1.2.2-1.9.2-.6 0-1.1-.1-1.6-.2V26h-1V12.9h.2zm.9 6.7c.2.1.5.1.7.2h.9c1.2 0 2.2-.2 2.8-.8.6-.6 1-1.4 1-2.5 0-.5-.1-1-.2-1.4-.2-.4-.4-.7-.7-1-.3-.2-.7-.4-1.1-.6-.4-.2-1-.2-1.4-.2-.4 0-.8 0-1.1.1-.3 0-.6.1-.7.1l-.2 6.1z"/><path id="path2998" class="st1" d="M41 23.8v1.1c0 .4.1.7.1 1.1h-.9l-.1-1.3H40c-.1.2-.2.4-.5.6-.2.2-.4.3-.6.5-.2.2-.6.2-.8.4-.3.1-.6.2-1 .2-.5 0-.9-.1-1.2-.2-.3-.2-.6-.3-.9-.6-.2-.2-.4-.6-.5-.9-.2-.3-.2-.6-.2-1 0-1.1.5-2 1.4-2.6 1-.6 2.4-.9 4.3-.9V20c0-.2 0-.6-.1-.9-.1-.3-.2-.6-.3-1-.2-.3-.4-.6-.7-.7-.3-.2-.7-.3-1.3-.3-.4 0-.8.1-1.2.2-.4.2-.8.3-1.1.6l-.3-.7c.4-.3.9-.5 1.3-.6.5-.2 1-.2 1.4-.2.6 0 1.2.1 1.6.3.4.2.7.5 1 .9.2.3.4.8.5 1.2.1.5.2.9.2 1.4v3.6zM40 21c-.5 0-1 0-1.6.1s-1 .2-1.5.3c-.5.2-.9.5-1.1.8-.3.3-.5.8-.5 1.4 0 .6.2 1.2.6 1.5s.8.5 1.3.5c.4 0 .7-.1 1-.2s.6-.2.8-.4l.6-.6c.2-.2.2-.5.3-.7s.1-.5.1-.6V21z"/><path id="path3000" class="st1" d="M42.8 16.6l2.4 6.2c.2.3.2.7.4 1 .1.4.2.7.3 1h.1c.1-.3.2-.6.3-1 .1-.4.2-.7.4-1.1l2.2-6.2h1l-2.8 7c-.2.7-.6 1.4-.8 2-.2.6-.5 1.1-.7 1.6-.2.5-.5.9-.8 1.3-.2.4-.6.7-.9 1-.4.3-.7.6-1 .7s-.6.2-.6.3l-.3-.8c.2-.1.5-.2.8-.4l.9-.6c.2-.2.5-.6.8-1 .3-.4.6-.9.8-1.4.1-.2.1-.3.1-.4 0-.1 0-.2-.1-.4l-3.4-8.9.9.1z"/></g></g></svg>