<svg version="1.1" id="Layer_1" xmlns="http://www.w3.org/2000/svg" x="0" y="0" viewBox="0 0 61.8 40" xml:space="preserve"><style>.st1{fill:#fff}</style><path d="M59.4 0h-57C1 0 0 1 0 2.4v35.2C0 39 1 40 2.4 40h57c1.4 0 2.4-1 2.4-2.4V2.4C61.8 1 60.6 0 59.4 0z" fill="#128777"/><path class="st1" d="M29.8 21.4V26h-1.4V14.6h3.9c1 0 1.8.3 2.6 1 .7.6 1 1.5 1 2.4 0 1-.4 1.8-1 2.5-.7.6-1.5 1-2.6 1l-2.5-.1zm0-5.4v4h2.5c.6 0 1-.2 1.4-.6.8-.7.8-2 0-2.8-.3-.5-.9-.6-1.4-.6h-2.5zm9.4 1.9c1.1 0 1.9.3 2.6.9.6.6 1 1.4 1 2.4v4.9h-1.4V25h-.1c-.6.9-1.4 1.4-2.5 1.4-.9 0-1.6-.2-2.2-.8-.6-.5-.9-1.2-.9-1.9 0-.8.3-1.4 1-1.9.6-.5 1.4-.7 2.5-.7.9 0 1.6.2 2.2.5v-.3c0-.5-.2-1-.6-1.3-.4-.3-.9-.6-1.4-.6-.8 0-1.4.3-1.9 1l-1.5-.9c.7-1 1.8-1.6 3.2-1.6zm-1.9 5.8c0 .4.2.7.5 1 .3.2.7.4 1.1.4.6 0 1.2-.2 1.7-.7.5-.5.7-1 .7-1.6-.5-.4-1.1-.6-1.9-.6-.6 0-1.1.2-1.5.4-.4.3-.6.6-.6 1.1zm13.6-5.5l-5 11.4h-1.5l1.8-4-3.2-7.4h1.6l2.3 5.7 2.3-5.7h1.7zM23.8 20.4c0-.5 0-.9-.1-1.4h-6.2v2.6h3.6c-.2.8-.6 1.5-1.3 2-.6.4-1.4.6-2.2.6-1.8 0-3.2-1.2-3.7-2.7-.2-.8-.2-1.7 0-2.6.6-1.6 2-2.7 3.7-2.7 1 0 1.8.3 2.6 1l1.9-1.9c-1.2-1.1-2.8-1.8-4.4-1.8-2.5 0-4.8 1.4-5.9 3.6-1 1.8-1 4.1 0 5.9 1.1 2.2 3.4 3.6 5.9 3.6 1.8 0 3.3-.6 4.4-1.6 1-.8 1.7-2.6 1.7-4.6z"/></svg>