<svg version="1.1" id="Layer_1" xmlns="http://www.w3.org/2000/svg" x="0" y="0" viewBox="0 0 61.8 40" xml:space="preserve"><style>.st1{fill:#fff}</style><path d="M59.4 0h-57C1 0 0 1 0 2.4v35.2C0 39 1 40 2.4 40h57c1.4 0 2.4-1 2.4-2.4V2.4C61.8 1 60.6 0 59.4 0z" fill="#128777"/><path class="st1" d="M21.4 32.9c-.2-.3-.6-.5-1-.5-.9 0-1.6.7-1.6 1.8 0 1 .7 1.8 1.6 1.8.5 0 .8-.2 1-.5v.4h.7v-3.2h-.7v.2zm-.9 2.3c-.6 0-1-.5-1-1s.4-1 1-1 1 .5 1 1-.5 1-1 1zM24.6 33.8l-.3-.1c-.3-.1-.6-.1-.6-.3 0-.2.2-.4.6-.4s.8.2 1 .3l.3-.6c-.3-.2-.8-.3-1.4-.3-.8 0-1.4.4-1.4 1s.4.9 1.1 1l.3.1c.4.1.6.2.6.3 0 .2-.2.4-.7.4s-.9-.2-1.1-.3l-.3.6c.4.3.9.4 1.4.4 1 0 1.5-.5 1.5-1 .1-.7-.3-1-1-1.1zM28.1 35.2c-.3 0-.5-.2-.5-.6v-1.5h1.2v-.6h-1.2v-1h-.7v1h-.6v.6h.6v1.5c0 .8.3 1.2 1.1 1.2.3 0 .6-.1.9-.2l-.3-.6c-.1.1-.4.2-.5.2zM23.6 29.5c2.6 0 5.1-.8 7.3-2.3 2.2 1.5 4.6 2.3 7.3 2.3 7 0 12.7-5.7 12.7-12.7S45.2 4.1 38.2 4.1c-2.6 0-5.1.8-7.3 2.3-2.2-1.5-4.6-2.3-7.3-2.3-7 0-12.7 5.7-12.7 12.7 0 7 5.7 12.7 12.7 12.7zm4.2-13.2v-.2-.4-.2c0-.1 0-.2.1-.3 0-.1 0-.2.1-.2 0-.1 0-.2.1-.3 0-.1 0-.2.1-.2 0-.1.1-.2.1-.3s.1-.2.1-.2c0-.1.1-.2.1-.3 0-.1.1-.2.1-.2 0-.1.1-.2.1-.3 0-.1.1-.2.1-.2.1-.1.1-.2.2-.3 0-.1.1-.1.1-.2.1-.2.2-.3.2-.5 0 0 0-.1.1-.1.1-.2.2-.2.2-.4 0-.1.1-.1.1-.2.1-.1.2-.2.2-.3.1-.1.1-.2.2-.2l.2-.2c.1-.1.1-.2.2-.2l.2-.2.2-.2.2-.2.2-.2-.3-.2v.1l.2.2.2.2.2.2.2.2.2.2.2.2.2.2c.1.1.2.2.2.3 0 .1.1.1.1.2.1.2.2.2.2.4 0 0 0 .1.1.1.1.2.2.3.2.5 0 .1.1.1.1.2.1.1.1.2.2.3 0 .1.1.2.1.2.1.1.1.2.1.3 0 .1.1.2.1.2 0 .1.1.2.1.3 0 .1.1.2.1.2 0 .1.1.2.1.3s0 .2.1.2c0 .1.1.2.1.3v.2c0 .1 0 .2.1.3V18.2s0 .2-.1.3v.2c0 .1-.1.2-.1.3 0 .1 0 .2-.1.2 0 .1-.1.2-.1.3s-.1.2-.1.2c0 .1-.1.2-.1.3s-.1.2-.1.2-.1.2-.1.3-.2.5-.2.5c-.1.1-.1.2-.2.3 0 .1-.1.1-.1.2-.1.2-.2.3-.2.5 0 0 0 .1-.1.1-.1.2-.2.2-.2.4 0 .1-.1.1-.1.2-.1.1-.2.2-.2.3h-.1l-.2.2c-.1.1-.1.2-.2.2l-.2.2-.2.2-.2.2-.2.2v.1l-.1-.1-.2-.2-.2-.2-.2-.2-.2-.2-.2-.2-.2-.2-.2-.2c-.1-.1-.2-.2-.2-.3 0-.1-.1-.1-.1-.2-.1-.2-.2-.2-.2-.4 0 0 0-.1-.1-.1-.1-.2-.2-.3-.2-.5 0-.1-.1-.1-.1-.2-.1-.1-.1-.2-.2-.3 0-.1-.1-.2-.1-.2-.1-.1-.1-.2-.1-.3s-.1-.2-.1-.2c0-.1-.1-.2-.1-.3s-.1-.2-.1-.2-.1-.2-.1-.3 0-.2-.1-.2c0-.1-.1-.2-.1-.3v-.2c0-.1 0-.2-.1-.3v-.2-.4-.2-.6c.3-.3.3-.4.3-.6zM16.8 32.4c-.4 0-.9.2-1.1.6-.2-.4-.6-.6-1.1-.6-.3 0-.7.1-1 .5v-.4h-.7v3.3h.7V34c0-.6.3-.9.8-.9s.7.3.7.9v1.8h.7V34c0-.6.3-.9.8-.9s.7.3.7.9v1.8h.7v-2.1c.1-.7-.4-1.3-1.2-1.3zM43.8 32.9v-.4h-.7v3.3h.7V34c0-.6.2-.9.7-.9.2 0 .3 0 .5.1l.2-.6c-.2-.1-.4-.1-.5-.1-.4-.1-.6.1-.9.4zM48.2 32.9c-.2-.3-.6-.5-1-.5-.9 0-1.6.7-1.6 1.8 0 1 .7 1.8 1.6 1.8.5 0 .8-.2 1-.5v.4h.6v-4.6h-.7l.1 1.6zm-1 2.3c-.6 0-1-.5-1-1s.4-1 1-1 1 .5 1 1-.4 1-1 1zM41.5 32.9c-.2-.3-.6-.5-1-.5-.9 0-1.6.7-1.6 1.8 0 1 .7 1.8 1.6 1.8.5 0 .8-.2 1-.5v.4h.7v-3.2h-.7v.2zm-.9 2.3c-.6 0-1-.5-1-1s.4-1 1-1 1 .5 1 1-.5 1-1 1zM33.9 32.9v-.4h-.7v3.3h.7V34c0-.6.2-.9.7-.9.2 0 .3 0 .5.1l.2-.6c-.2-.1-.4-.1-.5-.1-.4-.1-.6.1-.9.4zM37.3 33c.3 0 .6.1.9.3l.3-.6c-.3-.3-.7-.4-1.2-.4-1 0-1.8.7-1.8 1.8 0 1 .7 1.8 1.8 1.8.5 0 .8-.1 1.2-.4l-.3-.5c-.3.1-.6.2-.9.2-.6 0-1-.4-1-1s.4-1.1 1-1.2zM31 32.4c-1 0-1.6.7-1.6 1.8 0 1 .7 1.8 1.7 1.8.5 0 1-.2 1.4-.5l-.5-.6c-.2.2-.6.3-1 .3-.5 0-.9-.2-1-.8h2.4v-.2c.1-1.1-.6-1.8-1.4-1.8zm-.9 1.4c.1-.5.4-.8.9-.8s.7.3.8.8h-1.7z"/></svg>