<svg version="1.1" id="Layer_1" xmlns="http://www.w3.org/2000/svg" x="0" y="0" viewBox="0 0 126.6 40" xml:space="preserve"><style>.st1{fill:#0a2540}</style><path d="M124.2 40H2.4C1 40 0 39 0 37.6V2.4C0 1 1 0 2.4 0h121.8c1.4 0 2.4 1 2.4 2.4v35.2c0 1.4-1 2.4-2.4 2.4z" fill="#ededed"/><path class="st1" d="M72.6 17.8c0-.6.4-.7 1.1-.7 1 0 2.2.3 3.4.9v-3.1c-1.1-.5-2.2-.6-3.4-.6-2.7 0-4.6 1.4-4.6 3.8 0 3.7 5 3 5 4.6 0 .6-.6.8-1.3.8-1.1 0-2.6-.5-3.7-1v3.2c1.3.6 2.5.7 3.7.7 2.8 0 4.6-1.4 4.6-3.8.4-4-4.8-3.2-4.8-4.8zm9.1-6.3l-3.3.6v10.6c0 2 1.4 3.4 3.4 3.4 1 0 1.8-.2 2.3-.5V23c-.4.2-2.6.8-2.6-1.2v-4.7h2.6v-2.9h-2.6l.2-2.7zm6.6 3.9l-.2-1h-2.9v11.7h3.4v-7.9c.8-1 2.2-.9 2.6-.6v-3c-.6-.4-2.1-.6-2.9.8zm3.6-.9h3.4v11.7h-3.4V14.5zm0-1.1l3.4-.7v-2.6l-3.4.7v2.6zm10.3.8c-1.4 0-2.2.6-2.6 1l-.2-.8h-3V30l3.4-.7v-3.8c.5.3 1.2.9 2.3.9 2.4 0 4.6-1.9 4.6-6.2.1-3.9-2.1-6-4.5-6zm-.8 9.2c-.8 0-1.3-.2-1.6-.6v-5c.3-.4.8-.6 1.6-.6 1.2 0 2.1 1.4 2.1 3.1 0 1.8-.9 3.1-2.1 3.1zm16-3.1c0-3.4-1.7-6.2-4.8-6.2-3.2 0-5.1 2.6-5.1 6.1 0 4 2.2 6.1 5.5 6.1 1.6 0 2.8-.3 3.7-.9v-2.6c-1 .5-1.9.7-3.3.7-1.3 0-2.5-.5-2.6-2h6.6v-1.2zm-6.7-1.3c0-1.5 1-2.2 1.8-2.2s1.7.6 1.7 2.2h-3.5zM10.9 20.6v2.6H10v-6.6h2.1c.7 0 1.4.2 1.7.6.3.3.6.8.6 1.4s-.2 1-.6 1.4c-.4.3-1 .6-1.7.6h-1.2zm2.2-1c.2-.2.3-.6.3-1s-.2-.7-.3-1c-.2-.2-.6-.3-1.1-.3h-1.2v2.6H12c.6 0 1-.1 1.1-.3zM19 18.5c.4.2.6.6 1 1 .2.4.3.9.3 1.4 0 .5-.2 1-.3 1.4-.2.4-.6.6-1 1-.4.2-.8.3-1.4.3-.6 0-1-.2-1.4-.3-.4-.2-.6-.6-1-1-.2-.5-.2-.9-.2-1.5s.2-1 .3-1.4c.2-.4.6-.7 1-1 .4-.2.8-.3 1.4-.3.5.1.9.1 1.3.4zm-2.2.5c-.2.2-.5.3-.6.6-.2.2-.2.6-.2 1s.1.7.2 1c.2.2.4.5.6.6.2.2.6.2.9.2s.6-.1.9-.2c.2-.2.5-.3.6-.6.2-.2.2-.6.2-1s-.1-.8-.2-1-.4-.5-.6-.6c-.2-.2-.6-.2-.9-.2-.3.1-.7.2-.9.2zM28.4 18.2L27 23.4h-1l-1.4-4.2-1.4 4.2h-1l-1.4-5.1h.9l1 4.3 1.4-4.3h.9l1.4 4.3 1.1-4.3h.9zM33.8 21h-4.1c0 .6.2 1 .5 1.4.3.2.6.5 1.1.5.4 0 .7-.2 1-.3.3-.2.5-.5.6-.9h1c-.1.3-.2.6-.4 1-.2.2-.5.5-.9.6-.3.2-.7.2-1.1.2-.5 0-1-.2-1.4-.3-.4-.2-.6-.6-.9-1-.2-.4-.2-.9-.2-1.5s.2-1 .3-1.4c.2-.4.6-.7.9-1 .3-.2.8-.3 1.4-.3.5 0 1 .2 1.4.3.4.2.6.5.9.9.1.5.1.8.1 1.3-.2.1-.2.3-.2.5zm-.9-1.4c-.2-.2-.3-.5-.6-.6-.2-.2-.6-.2-.8-.2-.5 0-.9.2-1.2.5-.3.2-.5.7-.6 1.3H33c0-.4 0-.8-.1-1zM36.6 18.4c.3-.2.7-.2 1.1-.2v1h-.2c-.5 0-.9.2-1.2.4-.3.2-.5.6-.5 1.2v2.6h-.9v-5.1h.9v1c.2-.4.4-.7.8-.9zM43.3 21h-4.1c0 .6.2 1 .5 1.4.3.2.6.5 1.1.5.4 0 .7-.2 1-.3.3-.2.5-.5.6-.9h1c-.1.3-.2.6-.4 1-.2.2-.5.5-.9.6-.3.2-.7.2-1.1.2-.5 0-1-.2-1.4-.3-.4-.2-.6-.6-.9-1-.2-.4-.3-.9-.3-1.4s.2-1 .3-1.4c.2-.4.6-.7.9-1 .3-.2.8-.3 1.4-.3.5 0 1 .2 1.4.3.4.2.6.5.9.9.2.4.2.7.2 1.2-.2.1-.2.3-.2.5zm-1.1-1.4c-.2-.2-.3-.5-.6-.6-.2-.2-.6-.2-.8-.2-.5 0-.9.2-1.2.5-.3.2-.5.7-.6 1.3h3.3c.2-.4.1-.8-.1-1zM47.8 18.6c.3.2.6.6.7 1v-3h.9v6.9h-.9v-1.4c-.2.4-.4.7-.7 1-.3.2-.8.4-1.3.4s-.9-.2-1.2-.3c-.3-.2-.6-.6-.9-1-.2-.4-.3-.9-.3-1.4 0-.5.2-1 .3-1.4.2-.4.5-.7.9-1 .3-.2.7-.3 1.2-.3s.9.1 1.3.5zm-2.4.8c-.3.3-.5.8-.5 1.4s.2 1 .5 1.4c.3.3.7.5 1.3.5.3 0 .6-.1 1-.2.2-.2.5-.4.6-.6.2-.2.2-.6.2-1s-.1-.7-.2-1c-.2-.2-.3-.6-.6-.6-.2-.1-.6-.2-1-.2-.5-.2-.9-.1-1.3.3zM57 18.5c.3.2.6.6.9 1 .2.4.3.9.3 1.4 0 .5-.2 1-.3 1.4-.2.4-.5.6-.9 1-.4.2-.7.3-1.2.3s-1-.2-1.3-.4c-.3-.2-.6-.6-.7-1v1.4H53v-7h.9v3c.2-.4.4-.7.7-1 .3-.2.7-.4 1.3-.4.3 0 .7 0 1.1.3zm-2.4.6c-.2.2-.5.4-.6.6-.2.2-.2.6-.2 1s.1.7.2 1c.2.2.3.6.6.6.3.1.6.2.9.2.6 0 1-.2 1.3-.5.3-.3.5-.8.5-1.4s-.2-1-.5-1.4c-.3-.3-.7-.5-1.3-.5-.2.2-.5.3-.9.4zM59.7 18.2l1.7 4 1.5-4h1l-3 7.5h-1l1-2.6-2.2-5 1 .1z"/></svg>