<svg version="1.1" id="Layer_1" xmlns="http://www.w3.org/2000/svg" x="0" y="0" viewBox="0 0 104.9 40" xml:space="preserve"><style>.st1{fill:#113b72}.st2{fill:#ffa300}</style><path d="M102.5 40H2.4C1 40 0 39 0 37.6V2.4C0 1 1 0 2.4 0h100.1c1.4 0 2.4 1 2.4 2.4v35.2c0 1.4-1.1 2.4-2.4 2.4z" fill="#fff"/><path class="st1" d="M27.6 20.1h1.1c.6 0 1.1.4 1.1 1v8.7c0 .6-.3 1-1.1 1H16.1c-.4 0-.7-.3-.9-.7v-.3-8.6c0-.3 0-.6.3-1 .2-.1.4-.2.6-.2H24.5c1.1.1 2.1.1 3.1.1zm-5.8 6.6v.6c0 .3.3.6.6.6s.6-.2.6-.6v-.7c0-.3 0-.6.3-.7.6-.4.4-1.2 0-1.8-.4-.4-1.3-.6-1.8-.1-.6.4-.6 1.2-.1 1.6.4.3.5.6.4 1.1zM41.8 30.9h-3.6c-.3 0-.3-.1-.3-.3V20.4c0-.2.1-.2.3-.2h6.9c.3 0 .4 0 .4.3V22c0 .3-.1.3-.4.3h-4.2c-.3 0-.4 0-.4.3V24c0 .2.1.3.3.3h3.9c.4 0 .4.1.4.4v1.4c0 .2-.1.3-.3.3h-4c-.3 0-.4.1-.4.3v1.5c0 .2.1.3.3.3h4.6c.3 0 .4.1.4.4v1.5c0 .2-.1.3-.3.3-1.3.2-2.5.2-3.6.2zM82.6 30.2v4.1c0 .2-.1.2-.2.2h-2.2c-.3 0-.2-.1-.2-.3v-2.7-7.9c0-.3.1-.4.4-.4h1.8c.2 0 .3 0 .3.3v.6c.6-.6 1.3-1 2.2-1.1.9-.2 1.6.1 2.4.4 1 .6 1.4 1.3 1.8 2.2.4 1.4.1 2.7-.6 3.9-.6.9-1.6 1.3-2.7 1.4-1.4.2-2.2 0-3-.7zm1.8-1.1c1.1 0 1.8-.7 1.8-1.9 0-1.1-.7-1.9-1.8-1.9s-1.9.9-1.9 1.9c0 1 .9 1.9 1.9 1.9zM79.4 23.4c-.6 1.3-1 2.5-1.5 3.8-.6 1.5-1.3 3.1-1.9 4.6-.2.6-.6 1.3-1 1.8-.6.6-1.3 1-2.2 1-.6 0-1.1 0-1.6-.1-.2 0-.3-.1-.2-.2.2-.4.2-1 .2-1.4 0-.4.1-.4.6-.4 1 .1 1.4-.2 1.8-1.1.2-.6 0-1.1-.2-1.5-.3-.7-.6-1.6-1.1-2.4-.4-.9-.7-1.8-1.1-2.5-.2-.4-.3-.9-.6-1.3-.1-.2 0-.2.2-.2h2.4c.2 0 .2.1.3.3.6 1.3 1 2.7 1.5 4 0 .1 0 .3.2.3s.1-.2.1-.3c.4-1.3.9-2.6 1.3-3.9.1-.3.2-.4.6-.4.6-.1 1.3-.1 2.2-.1zM51 15.4h-2.5c-.3 0-.3.1-.2.3.2.6.7.9 1.4 1.1.7.1 1.4 0 1.9-.6.1-.1.2-.2.4 0 .4.3.9.6 1.4.9.3.1.2.3 0 .6-1 .9-2.1 1.3-3.4 1.3-1 0-1.9-.1-2.7-.7-1-.6-1.5-1.5-1.8-2.7-.1-.7 0-1.5.3-2.2.4-1.2 1.4-1.9 2.6-2.2 1.3-.3 2.6-.2 3.7.6.9.6 1.3 1.4 1.5 2.5.1.4.1.9.1 1.3 0 .2-.1.3-.3.3-.7-.5-1.5-.5-2.4-.5zm-1.2-1.6h1.4c.3 0 .3-.1.2-.3-.2-1-1.3-1.4-2.4-1-.4.2-.7.4-.9.9-.1.2-.1.4.2.3.7.1 1.1.1 1.5.1zM49.8 24.2c.4-.7 1.8-1.3 2.8-1.2.6.1 1.1.3 1.5.6.6.4.9 1.1 1 1.8.1 1.8 0 3.4.1 5.1 0 .2-.1.3-.3.3h-2.1c-.2 0-.3-.1-.3-.3v-3.7c0-.3-.1-.7-.2-1.1-.2-.6-.9-.9-1.5-.6-.6.2-.9.7-.9 1.4v3.9c0 .3-.1.4-.4.4h-1.9c-.2 0-.3 0-.3-.3v-7c0-.2.1-.3.3-.3h1.9c.3 0 .3.1.3.3v.7z"/><path class="st2" d="M27.6 20.1h-2.9v-1.5c0-1.1-1-1.9-2.2-2.1-1.2 0-2.2.9-2.2 2.1v1.5h-2.9v-2.2c0-.3.2-.7.3-1.1.4-1.1 1.2-1.8 2.2-2.4 1.1-.6 2.2-.7 3.4-.6 1 .1 1.8.6 2.6 1.1 1.1 1 1.8 2.2 1.8 3.7-.1.7-.1 1.1-.1 1.5z"/><path class="st1" d="M37.8 13.1V8c0-.3.1-.4.4-.3h1.9c.3 0 .4.1.4.4v7.7c0 .3.1.4.4.4h3.7c.2 0 .3.1.3.3v1.6c0 .2 0 .3-.3.3H38c-.3 0-.3-.1-.3-.3.1-1.7.1-3.4.1-5zM66.7 10.6c1.1 0 2.1.2 3 .9.2.1.2.2 0 .3l-1.1 1.1c-.1.1-.2.1-.4 0-.3-.2-.6-.4-1.1-.4-.3-.1-.7 0-1.1.1-.2.1-.3.3-.3.4 0 .2.1.3.3.4.3.1.7.2 1.1.3.6.1 1.1.3 1.6.6 1 .6 1.2 1.8.7 2.8-.4.9-1.3 1.3-2.2 1.4-1.5.2-2.9 0-4.2-.7-.2-.1-.3-.2-.1-.6.3-.3.6-.6 1-1.1.2-.2.3-.2.6 0 .4.4 1.1.6 1.8.6.2 0 .3 0 .4-.1.2-.1.4-.3.4-.6 0-.2-.2-.4-.6-.6-.6-.2-1.4-.4-2.1-.6-.6-.2-1.2-1-1.3-1.4-.3-1.9 1.1-2.8 2.6-3 .5.2.8.2 1 .2zM60.6 31.1c-.6 0-1.4 0-2.2-.3-1-.3-1.6-1-2.2-1.8-.3-.6-.4-1.3-.4-1.9-.1-1.5 1-3.1 2.4-3.7 1.6-.6 3.4-.6 4.9.4.2.1.2.2.1.3-.4.4-.9 1-1.3 1.4-.2.2-.2 0-.3-.1-.7-.6-1.5-.6-2.2-.1-.7.6-1.1 1.4-.7 2.4.2.9 1.1 1.3 1.9 1.2.3 0 .6-.1.9-.3.1-.1.3-.2.6 0 .3.4.6.9 1 1.2.2.2.2.3-.1.6-.6.5-1.4.7-2.4.7zM89.2 23.4h1c.2 0 .3-.1.3-.3v-1.4c0-.2 0-.3.3-.3h2.1c.2 0 .3.1.3.3v1.4c0 .2 0 .3.3.3h1.3c.2 0 .2 0 .2.2V25c0 .2-.1.2-.2.2h-1.3c-.2 0-.3 0-.3.3v2.6c0 .8.4 1.2 1.3 1.1.3-.1.4 0 .4.3v1.2c0 .2-.1.3-.2.3-.7.2-1.6.2-2.4.1-.9-.1-1.6-1.1-1.8-2.1v-3.4c0-.2 0-.3-.3-.3s-.7.1-1-.1c-.1-.1 0-.6 0-.9v-.9zM58.1 14.4v1.2c0 1 .6 1.3 1.4 1.1.3-.1.3 0 .3.2v1c0 .6 0 .7-.6.7s-1.4.1-2.1-.1c-.7-.2-1.3-.7-1.5-1.5-.2-1.2-.1-2.4-.1-3.6 0-.6 0-.6-.6-.6s-.6 0-.6-.6v-1.1c0-.2.1-.3.3-.2h.1c.9 0 .9 0 .9-.9 0-.4-.2-.9.1-1.1.2-.2.7-.1 1.2-.1h1c.2 0 .3 0 .3.3v1.4c0 .2.1.3.3.2h1.3c.2 0 .3 0 .3.3v1.3c0 .2-.1.3-.3.3h-1.3c-.2 0-.3.1-.3.3 0 .5-.1.9-.1 1.5zM66.9 24.2c.6-.6 1.1-1 1.8-1.1.9-.1 1 0 .9.7 0 .4-.1.7 0 1.2 0 .2 0 .3-.3.3-.4 0-.7-.1-1.2.1-.7.4-1.1.9-1.1 1.6v3.6c0 .3-.1.4-.3.3h-1.9c-.2 0-.3 0-.3-.3v-7c0-.2.1-.3.3-.3h1.9c.2 0 .3.1.3.3-.1.3-.1.5-.1.6zM61.2 11.4c-.1-.3 0-.6.4-.7.2 0 .2-.2.4-.3.1-.1.3-.2.3-.4s-.3-.1-.4-.1c-.6-.2-1.2-1-1-1.6.2-.6 1.1-1 1.8-.9.9.2 1.4.9 1.2 1.9-.1 1-.6 1.8-1.5 2.2-.3.2-.7.2-1.1.4-.1 0-.1-.1-.1-.1v-.4z"/><path class="st2" d="M27.7 14.4c-.4 0-.7-.7-.6-1.2s.6-.6.9-.9c.6-.4 1.2-1 1.8-1.4.4-.3 1-.2 1.3.1.3.4.3 1-.2 1.3-.7.6-1.5 1.2-2.2 1.8-.4.1-.7.1-1 .3zM14.5 10.7c.4 0 .6.1.9.3.7.6 1.5 1.2 2.2 1.8.4.4.4.9.1 1.3-.3.3-1 .3-1.4-.1-.6-.6-1.3-1-1.9-1.5l-.6-.6c-.3-.5.3-1.2.7-1.2zM21.6 9.9V8.5c0-.4.3-.7.7-.9.6 0 1 .2 1 .7v3.1c0 .4-.6.7-1 .7-.6 0-.9-.4-.9-.9.2-.3.2-.7.2-1.3zM31.6 17.2h1.5c.6 0 1 .3 1 .9 0 .4-.4.9-1 .9H30c-.4 0-.6-.2-.7-.6-.1-.3-.1-.6.2-1 .2-.1.3-.2.6-.2h1.5zM13.4 18.8h-1.5c-.6 0-.9-.2-.9-.9 0-.4.3-.7.9-.7H15c.4 0 .9.4.9.7 0 .4-.3.9-.9.9h-1.6z"/></svg>