<svg xmlns="http://www.w3.org/2000/svg" viewBox="0 0 61.8 40"><path d="M59.4 0h-57C1 0 0 1 0 2.4v35.2C0 39 1 40 2.4 40h57c1.4 0 2.4-1 2.4-2.4V2.4C61.8 1 60.6 0 59.4 0z" fill="#128777"/><path d="M10.9 13.9h5c.6 0 1.2.2 1.4 1l1.1 5.3c-1-2.7-3.7-5-7.6-6v-.3zM17 26l-3-10c2.1 1.4 3.8 3.4 4.5 5l.3 1.2L22 14h3.5l-5.1 11.9-3.4.1zm11.1 0h-3.3l2-11.9h3.3l-2 11.9zm5.7.2c-1.4 0-2.9-.3-3.6-.6l.5-2.6h.3c1 .5 1.8.6 3 .6 1 0 1.9-.4 1.9-1.2 0-.6-.4-.9-1.7-1.5-1.2-.6-2.9-1.5-2.9-3.3 0-2.3 2.3-3.9 5.5-3.9 1.3 0 2.2.2 2.9.5l-.4 2.6H39c-.6-.2-1.4-.5-2.4-.5-1.3 0-1.8.6-1.8 1 0 .6.7 1 1.8 1.5 1.8.9 2.7 1.9 2.7 3.3.1 2.5-2.1 4.1-5.5 4.1zm14-.2s-.3-1.4-.4-1.8h-4.2c-.2.3-.7 1.8-.7 1.8h-3.4L44 15c.3-.8 1-1 1.7-1h2.5l2.6 12h-3zm-1.6-7.7l-.2-1c-.2.5-.5 1.2-.4 1.1 0 0-1 2.6-1.3 3.4H47c-.2-.7-.8-3.5-.8-3.5z" fill="#fff"/></svg>