<?xml version="1.0" encoding="utf-8"?>
<!-- Generator: Adobe Illustrator 19.0.0, SVG Export Plug-In . SVG Version: 6.00 Build 0)  -->
<svg version="1.1" id="Capa_1" xmlns="http://www.w3.org/2000/svg" xmlns:xlink="http://www.w3.org/1999/xlink" x="0px" y="0px"
	 viewBox="-454 256 50 50" style="enable-background:new -454 256 50 50;" xml:space="preserve">
<style type="text/css">
	.st0{fill:#128777;}
</style>
<g>
	<path class="st0" d="M-419,256H-439c-8.1,0-14.9,6.6-14.9,14.9V291c0,8.1,6.6,14.9,14.9,14.9h20.1c8.1,0,14.9-6.6,14.9-14.9V271
		C-404.3,262.7-410.8,256-419,256z M-409.3,291.2c0,5.4-4.4,9.8-9.8,9.8h-20.1c-5.4,0-9.8-4.4-9.8-9.8V271c0-5.4,4.4-9.8,9.8-9.8
		h20.1c5.4,0,9.8,4.4,9.8,9.8V291.2L-409.3,291.2z"/>
	<path class="st0" d="M-429.2,268c-7.1,0-12.9,5.8-12.9,12.9c0,7.1,5.8,12.9,12.9,12.9c7.1,0,12.9-5.8,12.9-12.9
		C-416.3,273.8-422,268-429.2,268z M-429.2,288.8c-4.4,0-7.9-3.5-7.9-7.9c0-4.4,3.5-7.9,7.9-7.9c4.4,0,7.9,3.5,7.9,7.9
		C-421.3,285.3-424.8,288.8-429.2,288.8z"/>
	<circle class="st0" cx="-416.3" cy="268" r="3.1"/>
</g>
</svg>
