<?xml version="1.0" encoding="utf-8"?>
<!-- Generator: Adobe Illustrator 19.0.0, SVG Export Plug-In . SVG Version: 6.00 Build 0)  -->
<svg version="1.1" id="Capa_1" xmlns="http://www.w3.org/2000/svg" xmlns:xlink="http://www.w3.org/1999/xlink" x="0px" y="0px"
	 viewBox="-454 256 50 50" style="enable-background:new -454 256 50 50;" xml:space="preserve">
<style type="text/css">
	.st0{fill:#128777;}
</style>
<g>
	<g>
		<path class="st0" d="M-454,306h9.4v-37.6h-9.4V306z M-416.4,268.4c-8,0.2-12,6-12.6,6.2v-6.2h-9.4V306h9.4v-21.8
			c0-0.8,2-7.2,9.4-6.2c4,0.2,6.2,5.6,6.2,6.2V306h9.4v-26C-404.4,276.4-406.2,268.6-416.4,268.4z M-449.2,256c-2.6,0-4.6,2-4.6,4.6
			s2.2,4.6,4.6,4.6s4.6-2,4.6-4.6S-446.8,256-449.2,256z"/>
	</g>
</g>
</svg>
