<svg id="Layer_1" data-name="Layer 1" xmlns="http://www.w3.org/2000/svg" viewBox="0 0 160 30"><defs><style>.cls-1{fill:#2eae7a;}.cls-2{fill:#dcdce6;}.cls-3{fill:#fff;}</style></defs><g id="Trustpilot_ratings_4halfstar-RGB" data-name="Trustpilot ratings 4halfstar-RGB"><path id="Rectangle-path" class="cls-1" d="M0,0H30V30H0Z" transform="translate(0 0)"/><path class="cls-1" d="M32.52,0h30V30h-30Z" transform="translate(0 0)"/><path class="cls-1" d="M65,0H95V30H65Z" transform="translate(0 0)"/><path class="cls-1" d="M97.49,0h30V30h-30Z" transform="translate(0 0)"/><g id="Half"><path class="cls-2" d="M145,0h15V30H145Z" transform="translate(0 0)"/><path class="cls-1" d="M130,0h15V30H130Z" transform="translate(0 0)"/></g><path id="Shape" class="cls-3" d="M15,20.22l4.56-1.14L21.48,25ZM25.5,12.6h-8L15,5,12.54,12.6h-8L11,17.28,8.52,24.84,15,20.16l4-2.88Z" transform="translate(0 0)"/><path class="cls-3" d="M47.51,20.22l4.56-1.14L54,25ZM58,12.6H50L47.51,5,45.05,12.6H37l6.47,4.68L41,24.84l6.48-4.68,4-2.88Z" transform="translate(0 0)"/><path class="cls-3" d="M80,20.22l4.56-1.14L86.45,25Zm10.5-7.62h-8L80,5,77.51,12.6h-8L76,17.28l-2.46,7.56L80,20.16l4-2.88Z" transform="translate(0 0)"/><path class="cls-3" d="M112.49,20.22l4.56-1.14L119,25ZM123,12.6h-8L112.49,5,110,12.6h-8l6.48,4.68L106,24.84l6.48-4.68,4-2.88Z" transform="translate(0 0)"/><path class="cls-3" d="M145,20.22l4.56-1.14L151.48,25Zm10.5-7.62h-8L145,5l-2.46,7.56h-8L141,17.28l-2.46,7.56L145,20.16l4-2.88Z" transform="translate(0 0)"/></g></svg>