<?xml version="1.0" encoding="utf-8"?>
<!-- Generator: Adobe Illustrator 19.0.0, SVG Export Plug-In . SVG Version: 6.00 Build 0)  -->
<svg version="1.1" id="Capa_1" xmlns="http://www.w3.org/2000/svg" xmlns:xlink="http://www.w3.org/1999/xlink" x="0px" y="0px"
	 viewBox="-454 256 50 50" style="enable-background:new -454 256 50 50;" xml:space="preserve">
<style type="text/css">
	.st0{fill:#128777;}
</style>
<path class="st0" d="M-404,264.3c-0.8,0.6-3.4,1.6-5.8,1.8c1.6-0.8,3.8-3.8,4.2-6c-1.4,1-4.8,2.4-6.4,2.4l0,0
	c-1.8-2.2-4.6-3.4-7.4-3.4c-5.8,0-10.4,5-10.4,11.2c0,0.8,0,1.6,0.2,2.4l0,0c-7.8-0.2-16.8-4.4-21.8-11.6
	c-3.2,5.8-0.4,12.4,3.2,14.6c-1.2,0-3.4-0.2-4.6-1.2c0,3.8,1.6,9,8,10.8c-1.2,0.8-3.4,0.6-4.2,0.4c0.4,3.2,4.6,7.6,9.2,7.6
	c-1.6,2-7.4,5.8-14.2,4.6c4.8,3.2,10.2,5,16.2,5c16.6,0,29.6-14.6,28.8-32.4l0,0c0,0,0,0,0-0.2v-0.2
	C-407.4,268.9-405.4,266.9-404,264.3z"/>
</svg>
