<?xml version="1.0" encoding="utf-8"?>
<!-- Generator: Adobe Illustrator 19.0.0, SVG Export Plug-In . SVG Version: 6.00 Build 0)  -->
<svg version="1.1" id="Capa_1" xmlns="http://www.w3.org/2000/svg" xmlns:xlink="http://www.w3.org/1999/xlink" x="0px" y="0px"
	 viewBox="-454 256 50 50" style="enable-background:new -454 256 50 50;" xml:space="preserve">
<style type="text/css">
	.st0{fill:#128777;}
</style>
<g>
	<path class="st0" d="M-403.9,281c0,0,0,8.2-1,12.2c-0.6,2.1-2.3,3.8-4.4,4.4c-4,1.1-19.7,1.1-19.7,1.1s-15.6,0-19.7-1.1
		c-2.1-0.6-3.8-2.3-4.4-4.4c-1-4-1-12.2-1-12.2s0-8.2,1-12.2c0.6-2.1,2.3-3.8,4.4-4.4c4-1.1,19.7-1.1,19.7-1.1s15.6,0,19.7,1.1
		c2.1,0.6,3.8,2.3,4.4,4.4C-403.9,272.8-403.9,281-403.9,281z M-421.1,281l-13.2-7.4v14.9L-421.1,281z"/>
</g>
</svg>
